<svg width="151" height="54" viewBox="0 0 151 54" fill="none" xmlns="http://www.w3.org/2000/svg">
<g clip-path="url(#clip0_139_22803)">
<g clip-path="url(#clip1_139_22803)">
<g clip-path="url(#clip2_139_22803)">
<mask id="mask0_139_22803" style="mask-type:luminance" maskUnits="userSpaceOnUse" x="0" y="2" width="165" height="49">
<path d="M164.53 2.5H0.530029V50.5H164.53V2.5Z" fill="white"/>
</mask>
<g mask="url(#mask0_139_22803)">
<path d="M7.09009 16.5469L7.999 21.4445" stroke="#EDC240" stroke-width="2" stroke-miterlimit="10" stroke-linecap="round"/>
<path d="M7.99902 21.445L8.90794 21.2793" stroke="#EDC240" stroke-width="2" stroke-miterlimit="10" stroke-linecap="round"/>
<path d="M8.90796 21.2793L9.81687 21.7778" stroke="#EDC240" stroke-width="2" stroke-miterlimit="10" stroke-linecap="round"/>
<path d="M9.81689 21.7773L10.7258 26.5576" stroke="#EDC240" stroke-width="2" stroke-miterlimit="10" stroke-linecap="round"/>
<path d="M10.7257 26.5582L11.6346 22.4727" stroke="#EDC240" stroke-width="2" stroke-miterlimit="10" stroke-linecap="round"/>
<path d="M11.6346 22.4719L12.5436 19.5566" stroke="#EDC240" stroke-width="2" stroke-miterlimit="10" stroke-linecap="round"/>
<path d="M12.5436 19.5566L13.4525 23.6394" stroke="#EDC240" stroke-width="2" stroke-miterlimit="10" stroke-linecap="round"/>
<path d="M13.4525 23.6403L14.3614 21.0957" stroke="#EDC240" stroke-width="2" stroke-miterlimit="10" stroke-linecap="round"/>
<path d="M14.3615 21.0951L15.2704 15.7695" stroke="#EDC240" stroke-width="2" stroke-miterlimit="10" stroke-linecap="round"/>
<path d="M15.2704 15.7695L16.1793 17.4765" stroke="#EDC240" stroke-width="2" stroke-miterlimit="10" stroke-linecap="round"/>
<path d="M16.1792 17.4766L17.0881 16.0156" stroke="#EDC240" stroke-width="2" stroke-miterlimit="10" stroke-linecap="round"/>
<path d="M17.0881 16.0143L17.997 13.4316" stroke="#EDC240" stroke-width="2" stroke-miterlimit="10" stroke-linecap="round"/>
<path d="M17.9971 13.4335L18.906 12.1953" stroke="#EDC240" stroke-width="2" stroke-miterlimit="10" stroke-linecap="round"/>
<path d="M18.906 12.1941L19.8149 11.6855" stroke="#EDC240" stroke-width="2" stroke-miterlimit="10" stroke-linecap="round"/>
<path d="M19.8149 11.6855L20.7239 11.7647" stroke="#EDC240" stroke-width="2" stroke-miterlimit="10" stroke-linecap="round"/>
<path d="M20.7239 11.765L21.6328 4.41992" stroke="#EDC240" stroke-width="2" stroke-miterlimit="10" stroke-linecap="round"/>
<path d="M21.6327 4.41992L22.5416 8.28214" stroke="#EDC240" stroke-width="2" stroke-miterlimit="10" stroke-linecap="round"/>
<path d="M22.5416 8.28125L23.4505 10.7283" stroke="#EDC240" stroke-width="2" stroke-miterlimit="10" stroke-linecap="round"/>
<path d="M23.4506 10.729L24.3595 7.94727" stroke="#EDC240" stroke-width="2" stroke-miterlimit="10" stroke-linecap="round"/>
<path d="M24.3595 7.94727L25.2684 9.81041" stroke="#EDC240" stroke-width="2" stroke-miterlimit="10" stroke-linecap="round"/>
<path d="M25.2684 9.81055L26.1773 9.96909" stroke="#EDC240" stroke-width="2" stroke-miterlimit="10" stroke-linecap="round"/>
<path d="M26.1774 9.96964L27.0863 9.35547" stroke="#EDC240" stroke-width="2" stroke-miterlimit="10" stroke-linecap="round"/>
<path d="M27.0862 9.35547L27.9951 9.79993" stroke="#EDC240" stroke-width="2" stroke-miterlimit="10" stroke-linecap="round"/>
<path d="M27.9951 9.79958L28.904 5.51172" stroke="#EDC240" stroke-width="2" stroke-miterlimit="10" stroke-linecap="round"/>
<path d="M28.9041 5.51172L29.813 6.39556" stroke="#EDC240" stroke-width="2" stroke-miterlimit="10" stroke-linecap="round"/>
<path d="M29.813 6.39453L30.7219 8.65467" stroke="#EDC240" stroke-width="2" stroke-miterlimit="10" stroke-linecap="round"/>
<path d="M30.7219 8.65625L31.6308 9.17379" stroke="#EDC240" stroke-width="2" stroke-miterlimit="10" stroke-linecap="round"/>
<path d="M31.6309 9.17383L32.5398 9.94779" stroke="#EDC240" stroke-width="2" stroke-miterlimit="10" stroke-linecap="round"/>
<path d="M32.5397 9.94752L33.4486 8.00977" stroke="#EDC240" stroke-width="2" stroke-miterlimit="10" stroke-linecap="round"/>
<path d="M33.4486 8.00977L34.3575 10.1264" stroke="#EDC240" stroke-width="2" stroke-miterlimit="10" stroke-linecap="round"/>
<path d="M34.3575 10.127L35.2665 11.5216" stroke="#EDC240" stroke-width="2" stroke-miterlimit="10" stroke-linecap="round"/>
<path d="M35.2665 11.5215L36.1754 30.1347" stroke="#EDC240" stroke-width="2" stroke-miterlimit="10" stroke-linecap="round"/>
<path d="M36.1754 30.1348L37.0843 36.7869" stroke="#EDC240" stroke-width="2" stroke-miterlimit="10" stroke-linecap="round"/>
<path d="M37.0844 36.7858L37.9933 35.2344" stroke="#EDC240" stroke-width="2" stroke-miterlimit="10" stroke-linecap="round"/>
<path d="M37.9932 35.2344L38.9021 43.0357" stroke="#EDC240" stroke-width="2" stroke-miterlimit="10" stroke-linecap="round"/>
<path d="M38.9021 43.0363L39.811 39.5215" stroke="#EDC240" stroke-width="2" stroke-miterlimit="10" stroke-linecap="round"/>
<path d="M39.811 39.5215L40.72 40.1073" stroke="#EDC240" stroke-width="2" stroke-miterlimit="10" stroke-linecap="round"/>
<path d="M40.72 40.1074L41.6289 43.0375" stroke="#EDC240" stroke-width="2" stroke-miterlimit="10" stroke-linecap="round"/>
<path d="M41.6289 43.0371L42.5378 40.959" stroke="#EDC240" stroke-width="2" stroke-miterlimit="10" stroke-linecap="round"/>
<path d="M42.5378 40.9588L43.4468 39.709" stroke="#EDC240" stroke-width="2" stroke-miterlimit="10" stroke-linecap="round"/>
<path d="M43.4467 39.7096L44.3556 38.4629" stroke="#EDC240" stroke-width="2" stroke-miterlimit="10" stroke-linecap="round"/>
<path d="M44.3556 38.4623L45.2645 37.2812" stroke="#EDC240" stroke-width="2" stroke-miterlimit="10" stroke-linecap="round"/>
<path d="M45.2645 37.2821L46.1734 36.291" stroke="#EDC240" stroke-width="2" stroke-miterlimit="10" stroke-linecap="round"/>
<path d="M46.1735 36.291L47.0824 36.59" stroke="#EDC240" stroke-width="2" stroke-miterlimit="10" stroke-linecap="round"/>
<path d="M47.0824 36.5898L47.9913 38.0857" stroke="#EDC240" stroke-width="2" stroke-miterlimit="10" stroke-linecap="round"/>
<path d="M47.9913 38.085L48.9002 37.6582" stroke="#EDC240" stroke-width="2" stroke-miterlimit="10" stroke-linecap="round"/>
<path d="M48.9001 37.6579L49.8091 36.6133" stroke="#EDC240" stroke-width="2" stroke-miterlimit="10" stroke-linecap="round"/>
<path d="M49.8091 36.6136L50.718 36.0215" stroke="#EDC240" stroke-width="2" stroke-miterlimit="10" stroke-linecap="round"/>
<path d="M50.718 36.0214L51.6269 35.8145" stroke="#EDC240" stroke-width="2" stroke-miterlimit="10" stroke-linecap="round"/>
<path d="M51.627 35.8145L52.5359 38.0002" stroke="#EDC240" stroke-width="2" stroke-miterlimit="10" stroke-linecap="round"/>
<path d="M52.5359 38L53.4448 39.1067" stroke="#EDC240" stroke-width="2" stroke-miterlimit="10" stroke-linecap="round"/>
<path d="M53.4448 39.1074L54.3537 39.3603" stroke="#EDC240" stroke-width="2" stroke-miterlimit="10" stroke-linecap="round"/>
<path d="M54.3538 39.3594L55.2627 40.1992" stroke="#EDC240" stroke-width="2" stroke-miterlimit="10" stroke-linecap="round"/>
<path d="M55.2626 40.1992L56.1715 40.9361" stroke="#EDC240" stroke-width="2" stroke-miterlimit="10" stroke-linecap="round"/>
<path d="M56.1715 40.9371L57.0804 37.6367" stroke="#EDC240" stroke-width="2" stroke-miterlimit="10" stroke-linecap="round"/>
<path d="M57.0804 37.6367L57.9894 40.1631" stroke="#EDC240" stroke-width="2" stroke-miterlimit="10" stroke-linecap="round"/>
<path d="M57.9894 40.1633L58.8983 34.625" stroke="#EDC240" stroke-width="2" stroke-miterlimit="10" stroke-linecap="round"/>
<path d="M58.8983 34.625L59.8072 35.5962" stroke="#EDC240" stroke-width="2" stroke-miterlimit="10" stroke-linecap="round"/>
<path d="M59.8073 35.5956L60.7162 34.1191" stroke="#EDC240" stroke-width="2" stroke-miterlimit="10" stroke-linecap="round"/>
<path d="M60.7161 34.1185L61.625 32.8594" stroke="#EDC240" stroke-width="2" stroke-miterlimit="10" stroke-linecap="round"/>
<path d="M61.625 32.8594L62.5339 33.5269" stroke="#EDC240" stroke-width="2" stroke-miterlimit="10" stroke-linecap="round"/>
<path d="M62.5339 33.5273L63.4428 35.6122" stroke="#EDC240" stroke-width="2" stroke-miterlimit="10" stroke-linecap="round"/>
<path d="M63.4429 35.6133L64.3518 36.2109" stroke="#EDC240" stroke-width="2" stroke-miterlimit="10" stroke-linecap="round"/>
<path d="M64.3518 36.2109L65.2607 37.0322" stroke="#EDC240" stroke-width="2" stroke-miterlimit="10" stroke-linecap="round"/>
<path d="M65.2607 37.0312L66.1697 38.0293" stroke="#EDC240" stroke-width="2" stroke-miterlimit="10" stroke-linecap="round"/>
<path d="M66.1696 38.0298L67.0785 35.9551" stroke="#EDC240" stroke-width="2" stroke-miterlimit="10" stroke-linecap="round"/>
<path d="M67.0785 35.9551L67.9874 37.8473" stroke="#EDC240" stroke-width="2" stroke-miterlimit="10" stroke-linecap="round"/>
<path d="M67.9874 37.8462L68.8963 36.5059" stroke="#EDC240" stroke-width="2" stroke-miterlimit="10" stroke-linecap="round"/>
<path d="M68.8964 36.5074L69.8053 35.9707" stroke="#EDC240" stroke-width="2" stroke-miterlimit="10" stroke-linecap="round"/>
<path d="M69.8053 35.9709L70.7142 33.8613" stroke="#EDC240" stroke-width="2" stroke-miterlimit="10" stroke-linecap="round"/>
<path d="M70.7142 33.8613L71.6231 34.4584" stroke="#EDC240" stroke-width="2" stroke-miterlimit="10" stroke-linecap="round"/>
<path d="M71.623 34.457L72.532 36.2469" stroke="#EDC240" stroke-width="2" stroke-miterlimit="10" stroke-linecap="round"/>
<path d="M72.532 36.248L73.4409 39.4775" stroke="#EDC240" stroke-width="2" stroke-miterlimit="10" stroke-linecap="round"/>
<path d="M73.4409 39.4764L74.3498 37.7734" stroke="#EDC240" stroke-width="2" stroke-miterlimit="10" stroke-linecap="round"/>
<path d="M74.3499 37.7746L75.2588 37.3594" stroke="#EDC240" stroke-width="2" stroke-miterlimit="10" stroke-linecap="round"/>
<path d="M75.2588 37.3593L76.1677 33.998" stroke="#EDC240" stroke-width="2" stroke-miterlimit="10" stroke-linecap="round"/>
<path d="M76.1677 33.998L77.0766 34.3094" stroke="#EDC240" stroke-width="2" stroke-miterlimit="10" stroke-linecap="round"/>
<path d="M77.0767 34.3089L77.9856 33.8672" stroke="#EDC240" stroke-width="2" stroke-miterlimit="10" stroke-linecap="round"/>
<path d="M77.9855 33.8671L78.8944 32.3262" stroke="#EDC240" stroke-width="2" stroke-miterlimit="10" stroke-linecap="round"/>
<path d="M78.8944 32.3262L79.8033 34.0676" stroke="#EDC240" stroke-width="2" stroke-miterlimit="10" stroke-linecap="round"/>
<path d="M79.8033 34.068L80.7123 32.0898" stroke="#EDC240" stroke-width="2" stroke-miterlimit="10" stroke-linecap="round"/>
<path d="M80.7123 32.0898L81.6212 33.347" stroke="#EDC240" stroke-width="2" stroke-miterlimit="10" stroke-linecap="round"/>
<path d="M81.6212 33.3465L82.5301 31.0938" stroke="#EDC240" stroke-width="2" stroke-miterlimit="10" stroke-linecap="round"/>
<path d="M82.53 31.0938L83.4389 33.9849" stroke="#EDC240" stroke-width="2" stroke-miterlimit="10" stroke-linecap="round"/>
<path d="M83.439 33.9844L84.3479 34.1139" stroke="#EDC240" stroke-width="2" stroke-miterlimit="10" stroke-linecap="round"/>
<path d="M84.3479 34.1152L85.2568 35.353" stroke="#EDC240" stroke-width="2" stroke-miterlimit="10" stroke-linecap="round"/>
<path d="M85.2568 35.3531L86.1658 34.0215" stroke="#EDC240" stroke-width="2" stroke-miterlimit="10" stroke-linecap="round"/>
<path d="M86.1658 34.0201L87.0747 33.4219" stroke="#EDC240" stroke-width="2" stroke-miterlimit="10" stroke-linecap="round"/>
<path d="M87.0747 33.4219L87.9836 33.9406" stroke="#EDC240" stroke-width="2" stroke-miterlimit="10" stroke-linecap="round"/>
<path d="M87.9836 33.9415L88.8926 33.0234" stroke="#EDC240" stroke-width="2" stroke-miterlimit="10" stroke-linecap="round"/>
<path d="M88.8925 33.0234L89.8014 36.9961" stroke="#EDC240" stroke-width="2" stroke-miterlimit="10" stroke-linecap="round"/>
<path d="M89.8014 36.9961L90.7103 44.3523" stroke="#EDC240" stroke-width="2" stroke-miterlimit="10" stroke-linecap="round"/>
<path d="M90.7103 44.352L91.6192 43.8398" stroke="#EDC240" stroke-width="2" stroke-miterlimit="10" stroke-linecap="round"/>
<path d="M91.6193 43.8398L92.5282 44.5106" stroke="#EDC240" stroke-width="2" stroke-miterlimit="10" stroke-linecap="round"/>
<path d="M92.5282 44.5098L93.4371 46.9846" stroke="#EDC240" stroke-width="2" stroke-miterlimit="10" stroke-linecap="round"/>
<path d="M93.4371 46.9853L94.346 37.0215" stroke="#EDC240" stroke-width="2" stroke-miterlimit="10" stroke-linecap="round"/>
<path d="M94.3459 37.0218L95.2549 27.9297" stroke="#EDC240" stroke-width="2" stroke-miterlimit="10" stroke-linecap="round"/>
<path d="M95.2549 27.9297L96.1638 23.3379" stroke="#EDC240" stroke-width="2" stroke-miterlimit="10" stroke-linecap="round"/>
<path d="M96.1638 23.3369L97.0727 20.3281" stroke="#EDC240" stroke-width="2" stroke-miterlimit="10" stroke-linecap="round"/>
<path d="M97.0728 20.3281L97.9817 25.9347" stroke="#EDC240" stroke-width="2" stroke-miterlimit="10" stroke-linecap="round"/>
<path d="M97.9817 25.9358L98.8906 25.4434" stroke="#EDC240" stroke-width="2" stroke-miterlimit="10" stroke-linecap="round"/>
<path d="M98.8906 25.4434L99.7995 25.6117" stroke="#EDC240" stroke-width="2" stroke-miterlimit="10" stroke-linecap="round"/>
<path d="M99.7994 25.6109L100.708 25.5801" stroke="#EDC240" stroke-width="2" stroke-miterlimit="10" stroke-linecap="round"/>
<path d="M100.708 25.5801L101.617 28.45" stroke="#EDC240" stroke-width="2" stroke-miterlimit="10" stroke-linecap="round"/>
<path d="M101.617 28.4511L102.526 26.3145" stroke="#EDC240" stroke-width="2" stroke-miterlimit="10" stroke-linecap="round"/>
<path d="M102.526 26.3135L103.435 23.2188" stroke="#EDC240" stroke-width="2" stroke-miterlimit="10" stroke-linecap="round"/>
<path d="M103.435 23.2188L104.344 31.0335" stroke="#EDC240" stroke-width="2" stroke-miterlimit="10" stroke-linecap="round"/>
<path d="M104.344 31.0345L105.253 30.498" stroke="#EDC240" stroke-width="2" stroke-miterlimit="10" stroke-linecap="round"/>
<path d="M105.253 30.4966L106.162 28.0918" stroke="#EDC240" stroke-width="2" stroke-miterlimit="10" stroke-linecap="round"/>
<path d="M106.162 28.093L107.071 27.7617" stroke="#EDC240" stroke-width="2" stroke-miterlimit="10" stroke-linecap="round"/>
<path d="M107.071 27.7617L107.98 29.2105" stroke="#EDC240" stroke-width="2" stroke-miterlimit="10" stroke-linecap="round"/>
<path d="M107.98 29.2109L108.889 30.8608" stroke="#EDC240" stroke-width="2" stroke-miterlimit="10" stroke-linecap="round"/>
<path d="M108.889 30.8598L109.798 29.002" stroke="#EDC240" stroke-width="2" stroke-miterlimit="10" stroke-linecap="round"/>
<path d="M109.798 29.002L110.707 30.0591" stroke="#EDC240" stroke-width="2" stroke-miterlimit="10" stroke-linecap="round"/>
<path d="M110.706 30.0586L111.615 30.3891" stroke="#EDC240" stroke-width="2" stroke-miterlimit="10" stroke-linecap="round"/>
<path d="M111.615 30.3889L112.524 29.0898" stroke="#EDC240" stroke-width="2" stroke-miterlimit="10" stroke-linecap="round"/>
<path d="M112.524 29.0898L113.433 31.2664" stroke="#EDC240" stroke-width="2" stroke-miterlimit="10" stroke-linecap="round"/>
<path d="M113.433 31.2676L114.342 32.189" stroke="#EDC240" stroke-width="2" stroke-miterlimit="10" stroke-linecap="round"/>
<path d="M114.342 32.1881L115.251 30.8359" stroke="#EDC240" stroke-width="2" stroke-miterlimit="10" stroke-linecap="round"/>
<path d="M115.251 30.8359L116.16 36.9311" stroke="#EDC240" stroke-width="2" stroke-miterlimit="10" stroke-linecap="round"/>
<path d="M116.16 36.9322L117.069 36.5508" stroke="#EDC240" stroke-width="2" stroke-miterlimit="10" stroke-linecap="round"/>
<path d="M117.069 36.5508L117.978 37.572" stroke="#EDC240" stroke-width="2" stroke-miterlimit="10" stroke-linecap="round"/>
<path d="M117.978 37.5723L118.887 38.1084" stroke="#EDC240" stroke-width="2" stroke-miterlimit="10" stroke-linecap="round"/>
<path d="M118.887 38.1074L119.796 40.35" stroke="#EDC240" stroke-width="2" stroke-miterlimit="10" stroke-linecap="round"/>
<path d="M119.796 40.3508L120.705 39.4121" stroke="#EDC240" stroke-width="2" stroke-miterlimit="10" stroke-linecap="round"/>
<path d="M120.705 39.4121L121.614 41.9379" stroke="#EDC240" stroke-width="2" stroke-miterlimit="10" stroke-linecap="round"/>
<path d="M121.614 41.9376L122.522 41.1328" stroke="#EDC240" stroke-width="2" stroke-miterlimit="10" stroke-linecap="round"/>
<path d="M122.522 41.1328L123.431 42.5365" stroke="#EDC240" stroke-width="2" stroke-miterlimit="10" stroke-linecap="round"/>
<path d="M123.431 42.5364L124.34 40.9902" stroke="#EDC240" stroke-width="2" stroke-miterlimit="10" stroke-linecap="round"/>
<path d="M124.34 40.9902L125.249 43.2945" stroke="#EDC240" stroke-width="2" stroke-miterlimit="10" stroke-linecap="round"/>
<path d="M125.249 43.2949L126.158 47.0478" stroke="#EDC240" stroke-width="2" stroke-miterlimit="10" stroke-linecap="round"/>
<path d="M126.158 47.0469L127.067 44.3359" stroke="#EDC240" stroke-width="2" stroke-miterlimit="10" stroke-linecap="round"/>
<path d="M127.067 44.3368L127.976 42.709" stroke="#EDC240" stroke-width="2" stroke-miterlimit="10" stroke-linecap="round"/>
<path d="M127.976 42.709L128.885 43.1054" stroke="#EDC240" stroke-width="2" stroke-miterlimit="10" stroke-linecap="round"/>
<path d="M128.885 43.1054L129.794 42.0039" stroke="#EDC240" stroke-width="2" stroke-miterlimit="10" stroke-linecap="round"/>
<path d="M129.794 42.0039L130.703 43.4052" stroke="#EDC240" stroke-width="2" stroke-miterlimit="10" stroke-linecap="round"/>
<path d="M130.703 43.4043L131.612 45.3081" stroke="#EDC240" stroke-width="2" stroke-miterlimit="10" stroke-linecap="round"/>
<path d="M131.612 45.3086L132.52 48.5802" stroke="#EDC240" stroke-width="2" stroke-miterlimit="10" stroke-linecap="round"/>
<path d="M132.521 48.5804L133.429 44.4727" stroke="#EDC240" stroke-width="2" stroke-miterlimit="10" stroke-linecap="round"/>
<path d="M133.429 44.473L134.338 43.9453" stroke="#EDC240" stroke-width="2" stroke-miterlimit="10" stroke-linecap="round"/>
<path d="M134.338 43.9446L135.247 40.4805" stroke="#EDC240" stroke-width="2" stroke-miterlimit="10" stroke-linecap="round"/>
<path d="M135.247 40.4805L136.156 40.0469" stroke="#EDC240" stroke-width="2" stroke-miterlimit="10" stroke-linecap="round"/>
<path d="M136.156 40.046L137.065 39.4492" stroke="#EDC240" stroke-width="2" stroke-miterlimit="10" stroke-linecap="round"/>
<path d="M137.065 39.4492L137.974 39.6568" stroke="#EDC240" stroke-width="2" stroke-miterlimit="10" stroke-linecap="round"/>
<path d="M137.974 39.6579L138.883 36.9941" stroke="#EDC240" stroke-width="2" stroke-miterlimit="10" stroke-linecap="round"/>
<path d="M138.883 36.9941L139.792 39.6589" stroke="#EDC240" stroke-width="2" stroke-miterlimit="10" stroke-linecap="round"/>
<path d="M139.792 39.6581L140.701 34.9668" stroke="#EDC240" stroke-width="2" stroke-miterlimit="10" stroke-linecap="round"/>
<path d="M140.701 34.9668L141.61 38.8237" stroke="#EDC240" stroke-width="2" stroke-miterlimit="10" stroke-linecap="round"/>
<path d="M141.61 38.8242L142.519 41.4991" stroke="#EDC240" stroke-width="2" stroke-miterlimit="10" stroke-linecap="round"/>
<path d="M142.519 41.4984L143.427 30.0977" stroke="#EDC240" stroke-width="2" stroke-miterlimit="10" stroke-linecap="round"/>
<path d="M143.427 30.0975L144.336 28.5742" stroke="#EDC240" stroke-width="2" stroke-miterlimit="10" stroke-linecap="round"/>
<path d="M144.336 28.5752L145.245 23.1328" stroke="#EDC240" stroke-width="2" stroke-miterlimit="10" stroke-linecap="round"/>
<path d="M145.245 23.132L146.154 22.3027" stroke="#EDC240" stroke-width="2" stroke-miterlimit="10" stroke-linecap="round"/>
<path d="M146.154 22.3027L147.063 23.0529" stroke="#EDC240" stroke-width="2" stroke-miterlimit="10" stroke-linecap="round"/>
<path d="M147.063 23.0543L147.972 20.1016" stroke="#EDC240" stroke-width="2" stroke-miterlimit="10" stroke-linecap="round"/>
<path d="M147.972 20.1007L148.881 15.8555" stroke="#EDC240" stroke-width="2" stroke-miterlimit="10" stroke-linecap="round"/>
<path d="M148.881 15.8557L149.79 11.0527" stroke="#EDC240" stroke-width="2" stroke-miterlimit="10" stroke-linecap="round"/>
<path d="M149.79 11.0527L150.699 11.8093" stroke="#EDC240" stroke-width="2" stroke-miterlimit="10" stroke-linecap="round"/>
<path d="M150.699 11.8086L151.608 13.1759" stroke="#EDC240" stroke-width="2" stroke-miterlimit="10" stroke-linecap="round"/>
<path d="M151.608 13.1756L152.517 13.0781" stroke="#EDC240" stroke-width="2" stroke-miterlimit="10" stroke-linecap="round"/>
</g>
</g>
</g>
</g>
<defs>
<clipPath id="clip0_139_22803">
<rect width="164" height="53" fill="white" transform="translate(0.530029 0.5)"/>
</clipPath>
<clipPath id="clip1_139_22803">
<rect width="164" height="53" fill="white" transform="translate(0.530029 0.5)"/>
</clipPath>
<clipPath id="clip2_139_22803">
<rect width="164" height="48" fill="white" transform="translate(0.530029 2.5)"/>
</clipPath>
</defs>
</svg>
