<svg width="16" height="16" viewBox="0 0 16 16" fill="none" xmlns="http://www.w3.org/2000/svg">
<path fill-rule="evenodd" clip-rule="evenodd" d="M3.86797 6.13074V3.86406H6.13464V6.13074H3.86797ZM2.66797 3.66406C2.66797 3.11178 3.11568 2.66406 3.66797 2.66406H6.33464C6.88694 2.66406 7.33467 3.11178 7.33467 3.66406V6.33074C7.33467 6.883 6.88694 7.33074 6.33464 7.33074H3.66797C3.11568 7.33074 2.66797 6.883 2.66797 6.33074V3.66406ZM9.868 6.13074V3.86406H12.1346V6.13074H9.868ZM8.668 3.66406C8.668 3.11178 9.11567 2.66406 9.668 2.66406H12.3346C12.8869 2.66406 13.3346 3.11178 13.3346 3.66406V6.33074C13.3346 6.883 12.8869 7.33074 12.3346 7.33074H9.668C9.11567 7.33074 8.668 6.883 8.668 6.33074V3.66406ZM9.868 9.86407V12.1307H12.1346V9.86407H9.868ZM9.668 8.66407C9.11567 8.66407 8.668 9.1118 8.668 9.66407V12.3307C8.668 12.883 9.11567 13.3307 9.668 13.3307H12.3346C12.8869 13.3307 13.3346 12.883 13.3346 12.3307V9.66407C13.3346 9.1118 12.8869 8.66407 12.3346 8.66407H9.668ZM3.86797 12.1307V9.86407H6.13464V12.1307H3.86797ZM2.66797 9.66407C2.66797 9.1118 3.11568 8.66407 3.66797 8.66407H6.33464C6.88694 8.66407 7.33467 9.1118 7.33467 9.66407V12.3307C7.33467 12.883 6.88694 13.3307 6.33464 13.3307H3.66797C3.11568 13.3307 2.66797 12.883 2.66797 12.3307V9.66407Z" fill="#6188FF"/>
</svg>
