<svg width="17" height="16" viewBox="0 0 17 16" fill="none" xmlns="http://www.w3.org/2000/svg">
<path fill-rule="evenodd" clip-rule="evenodd" d="M6.58996 3.33333C5.85358 3.33333 5.25663 3.93029 5.25663 4.66667C5.25663 5.40305 5.85358 6 6.58996 6C7.32636 6 7.9233 5.40305 7.9233 4.66667C7.9233 3.93029 7.32636 3.33333 6.58996 3.33333ZM3.922 5.33561C3.95063 5.33561 3.97884 5.33381 4.00653 5.3303C4.3015 6.48199 5.34631 7.33333 6.58996 7.33333C8.0627 7.33333 9.25663 6.13943 9.25663 4.66667C9.25663 3.19391 8.0627 2 6.58996 2C5.34472 2 4.29884 2.85352 4.0054 4.00745C3.97808 4.00403 3.95024 4.00228 3.922 4.00228H2.58866C2.22047 4.00228 1.922 4.30075 1.922 4.66895C1.922 5.03713 2.22047 5.33561 2.58866 5.33561H3.922ZM11.2566 4.00228C10.8884 4.00228 10.59 4.30075 10.59 4.66895C10.59 5.03713 10.8884 5.33561 11.2566 5.33561H14.59C14.9582 5.33561 15.2566 5.03713 15.2566 4.66895C15.2566 4.30075 14.9582 4.00228 14.59 4.00228H11.2566ZM10.59 10C9.85356 10 9.25663 10.5969 9.25663 11.3333C9.25663 12.0697 9.85356 12.6667 10.59 12.6667C11.3264 12.6667 11.9233 12.0697 11.9233 11.3333C11.9233 10.5969 11.3264 10 10.59 10ZM7.9233 11.3333C7.9233 9.8606 9.11723 8.66667 10.59 8.66667C11.8344 8.66667 12.8797 9.519 13.1739 10.6717C13.2006 10.6685 13.2279 10.6667 13.2555 10.6667L14.5897 10.6644C14.9579 10.6637 15.2569 10.9617 15.2575 11.3299C15.2582 11.6981 14.9602 11.9971 14.592 11.9977L13.2578 12C13.2294 12.0001 13.2014 11.9983 13.1739 11.9949C12.8796 13.1477 11.8344 14 10.59 14C9.11723 14 7.9233 12.8061 7.9233 11.3333ZM2.58996 10.6667C2.22178 10.6667 1.9233 10.9651 1.9233 11.3333C1.9233 11.7015 2.22178 12 2.58996 12H5.9233C6.29148 12 6.58996 11.7015 6.58996 11.3333C6.58996 10.9651 6.29148 10.6667 5.9233 10.6667H2.58996Z" fill="#858CA2"/>
</svg>
