<svg width="15" height="14" viewBox="0 0 15 14" fill="none" xmlns="http://www.w3.org/2000/svg">
<path d="M10.6467 6.41667C10.9689 6.41667 11.2301 6.15551 11.2301 5.83333C11.2301 5.51117 10.9689 5.25 10.6467 5.25C10.3246 5.25 10.0634 5.51117 10.0634 5.83333C10.0634 6.15551 10.3246 6.41667 10.6467 6.41667Z" fill="#858CA2"/>
<path d="M5.9803 6.41667C6.30246 6.41667 6.56364 6.15551 6.56364 5.83333C6.56364 5.51117 6.30246 5.25 5.9803 5.25C5.65813 5.25 5.39697 5.51117 5.39697 5.83333C5.39697 6.15551 5.65813 6.41667 5.9803 6.41667Z" fill="#858CA2"/>
<path d="M7.73031 1.13086C4.51613 1.13086 1.89697 3.7442 1.89697 6.96422C1.89697 10.1842 4.51613 12.7975 7.73031 12.7975C10.9445 12.7975 13.5636 10.1784 13.5636 6.96422C13.5636 3.75003 10.9445 1.13086 7.73031 1.13086ZM3.06363 6.96422C3.06363 4.59003 4.8428 2.63586 7.13531 2.33836L8.20864 7.37255H7.45031C7.15281 7.37255 6.86698 7.50672 6.68031 7.74005C6.49363 7.97339 6.4178 8.27672 6.48197 8.56839L7.12948 11.5842C4.83697 11.2925 3.0578 9.3325 3.0578 6.95839L3.06363 6.96422ZM8.32531 11.59L7.67198 8.54505H8.40114C8.71031 8.54505 8.99614 8.41089 9.18864 8.17172C9.38114 7.93255 9.45698 7.62339 9.39281 7.32589L8.33115 2.3442C10.6236 2.6417 12.397 4.59586 12.397 6.97006C12.397 9.34416 10.6178 11.2984 8.32531 11.5959V11.59Z" fill="#858CA2"/>
</svg>
