<svg width="151" height="53" viewBox="0 0 151 53" fill="none" xmlns="http://www.w3.org/2000/svg">
<g clip-path="url(#clip0_139_22585)">
<g clip-path="url(#clip1_139_22585)">
<g clip-path="url(#clip2_139_22585)">
<mask id="mask0_139_22585" style="mask-type:luminance" maskUnits="userSpaceOnUse" x="0" y="2" width="165" height="48">
<path d="M164.53 2H0.530029V50H164.53V2Z" fill="white"/>
</mask>
<g mask="url(#mask0_139_22585)">
<path d="M7.09009 38.8301L7.999 41.9615" stroke="#EDC240" stroke-width="2" stroke-miterlimit="10" stroke-linecap="round"/>
<path d="M7.99902 41.961L8.90794 41.4375" stroke="#EDC240" stroke-width="2" stroke-miterlimit="10" stroke-linecap="round"/>
<path d="M8.90796 41.4375L9.81687 41.76" stroke="#EDC240" stroke-width="2" stroke-miterlimit="10" stroke-linecap="round"/>
<path d="M9.81689 41.7598L10.7258 44.4108" stroke="#EDC240" stroke-width="2" stroke-miterlimit="10" stroke-linecap="round"/>
<path d="M10.7257 44.4117L11.6346 43.0273" stroke="#EDC240" stroke-width="2" stroke-miterlimit="10" stroke-linecap="round"/>
<path d="M11.6346 43.0259L12.5436 39.627" stroke="#EDC240" stroke-width="2" stroke-miterlimit="10" stroke-linecap="round"/>
<path d="M12.5436 39.627L13.4525 42.3786" stroke="#EDC240" stroke-width="2" stroke-miterlimit="10" stroke-linecap="round"/>
<path d="M13.4525 42.3783L14.3614 40.1074" stroke="#EDC240" stroke-width="2" stroke-miterlimit="10" stroke-linecap="round"/>
<path d="M14.3615 40.1089L15.2704 35.0742" stroke="#EDC240" stroke-width="2" stroke-miterlimit="10" stroke-linecap="round"/>
<path d="M15.2704 35.0742L16.1793 36.4764" stroke="#EDC240" stroke-width="2" stroke-miterlimit="10" stroke-linecap="round"/>
<path d="M16.1792 36.475L17.0881 36.2324" stroke="#EDC240" stroke-width="2" stroke-miterlimit="10" stroke-linecap="round"/>
<path d="M17.0881 36.2334L17.997 34.4551" stroke="#EDC240" stroke-width="2" stroke-miterlimit="10" stroke-linecap="round"/>
<path d="M17.9971 34.4551L18.906 32.8613" stroke="#EDC240" stroke-width="2" stroke-miterlimit="10" stroke-linecap="round"/>
<path d="M18.906 32.8617L19.8149 31.2773" stroke="#EDC240" stroke-width="2" stroke-miterlimit="10" stroke-linecap="round"/>
<path d="M19.8149 31.2773L20.7239 31.8482" stroke="#EDC240" stroke-width="2" stroke-miterlimit="10" stroke-linecap="round"/>
<path d="M20.7239 31.8474L21.6328 26.1914" stroke="#EDC240" stroke-width="2" stroke-miterlimit="10" stroke-linecap="round"/>
<path d="M21.6327 26.1914L22.5416 28.0724" stroke="#EDC240" stroke-width="2" stroke-miterlimit="10" stroke-linecap="round"/>
<path d="M22.5416 28.0723L23.4505 29.72" stroke="#EDC240" stroke-width="2" stroke-miterlimit="10" stroke-linecap="round"/>
<path d="M23.4506 29.7204L24.3595 29.3848" stroke="#EDC240" stroke-width="2" stroke-miterlimit="10" stroke-linecap="round"/>
<path d="M24.3595 29.3848L25.2684 29.3851" stroke="#EDC240" stroke-width="2" stroke-miterlimit="10" stroke-linecap="round"/>
<path d="M25.2684 29.3856L26.1773 29.0742" stroke="#EDC240" stroke-width="2" stroke-miterlimit="10" stroke-linecap="round"/>
<path d="M26.1774 29.0727L27.0863 28.957" stroke="#EDC240" stroke-width="2" stroke-miterlimit="10" stroke-linecap="round"/>
<path d="M27.0862 28.957L27.9951 30.2264" stroke="#EDC240" stroke-width="2" stroke-miterlimit="10" stroke-linecap="round"/>
<path d="M27.9951 30.2278L28.904 27.0664" stroke="#EDC240" stroke-width="2" stroke-miterlimit="10" stroke-linecap="round"/>
<path d="M28.9041 27.0664L29.813 27.3996" stroke="#EDC240" stroke-width="2" stroke-miterlimit="10" stroke-linecap="round"/>
<path d="M29.813 27.3984L30.7219 28.5858" stroke="#EDC240" stroke-width="2" stroke-miterlimit="10" stroke-linecap="round"/>
<path d="M30.7219 28.5868L31.6308 27.7637" stroke="#EDC240" stroke-width="2" stroke-miterlimit="10" stroke-linecap="round"/>
<path d="M31.6309 27.7637L32.5398 28.3706" stroke="#EDC240" stroke-width="2" stroke-miterlimit="10" stroke-linecap="round"/>
<path d="M32.5397 28.3693L33.4486 26.3105" stroke="#EDC240" stroke-width="2" stroke-miterlimit="10" stroke-linecap="round"/>
<path d="M33.4486 26.3105L34.3575 28.3213" stroke="#EDC240" stroke-width="2" stroke-miterlimit="10" stroke-linecap="round"/>
<path d="M34.3575 28.3227L35.2665 28.1777" stroke="#EDC240" stroke-width="2" stroke-miterlimit="10" stroke-linecap="round"/>
<path d="M35.2665 28.1777L36.1754 41.8462" stroke="#EDC240" stroke-width="2" stroke-miterlimit="10" stroke-linecap="round"/>
<path d="M36.1754 41.8457L37.0843 44.0315" stroke="#EDC240" stroke-width="2" stroke-miterlimit="10" stroke-linecap="round"/>
<path d="M37.0844 44.0308L37.9933 42.6973" stroke="#EDC240" stroke-width="2" stroke-miterlimit="10" stroke-linecap="round"/>
<path d="M37.9932 42.6973L38.9021 48.0792" stroke="#EDC240" stroke-width="2" stroke-miterlimit="10" stroke-linecap="round"/>
<path d="M38.9021 48.0791L39.811 46.1152" stroke="#EDC240" stroke-width="2" stroke-miterlimit="10" stroke-linecap="round"/>
<path d="M39.811 46.116L40.72 45.4531" stroke="#EDC240" stroke-width="2" stroke-miterlimit="10" stroke-linecap="round"/>
<path d="M40.72 45.4531L41.6289 47.4181" stroke="#EDC240" stroke-width="2" stroke-miterlimit="10" stroke-linecap="round"/>
<path d="M41.6289 47.4184L42.5378 46.3359" stroke="#EDC240" stroke-width="2" stroke-miterlimit="10" stroke-linecap="round"/>
<path d="M42.5378 46.3362L43.4468 44.5645" stroke="#EDC240" stroke-width="2" stroke-miterlimit="10" stroke-linecap="round"/>
<path d="M43.4467 44.5645L44.3556 45.0167" stroke="#EDC240" stroke-width="2" stroke-miterlimit="10" stroke-linecap="round"/>
<path d="M44.3556 45.0156L45.2645 45.1149" stroke="#EDC240" stroke-width="2" stroke-miterlimit="10" stroke-linecap="round"/>
<path d="M45.2645 45.1145L46.1734 44.4004" stroke="#EDC240" stroke-width="2" stroke-miterlimit="10" stroke-linecap="round"/>
<path d="M46.1735 44.4004L47.0824 44.514" stroke="#EDC240" stroke-width="2" stroke-miterlimit="10" stroke-linecap="round"/>
<path d="M47.0824 44.5156L47.9913 45.4775" stroke="#EDC240" stroke-width="2" stroke-miterlimit="10" stroke-linecap="round"/>
<path d="M47.9913 45.4767L48.9002 45.1621" stroke="#EDC240" stroke-width="2" stroke-miterlimit="10" stroke-linecap="round"/>
<path d="M48.9001 45.163L49.8091 44.252" stroke="#EDC240" stroke-width="2" stroke-miterlimit="10" stroke-linecap="round"/>
<path d="M49.8091 44.2522L50.718 43.8516" stroke="#EDC240" stroke-width="2" stroke-miterlimit="10" stroke-linecap="round"/>
<path d="M50.718 43.8505L51.6269 43.5684" stroke="#EDC240" stroke-width="2" stroke-miterlimit="10" stroke-linecap="round"/>
<path d="M51.627 43.5684L52.5359 44.9245" stroke="#EDC240" stroke-width="2" stroke-miterlimit="10" stroke-linecap="round"/>
<path d="M52.5359 44.9255L53.4448 44.7832" stroke="#EDC240" stroke-width="2" stroke-miterlimit="10" stroke-linecap="round"/>
<path d="M53.4448 44.7832L54.3537 45.4697" stroke="#EDC240" stroke-width="2" stroke-miterlimit="10" stroke-linecap="round"/>
<path d="M54.3538 45.4688L55.2627 45.8603" stroke="#EDC240" stroke-width="2" stroke-miterlimit="10" stroke-linecap="round"/>
<path d="M55.2626 45.8611L56.1715 45.7422" stroke="#EDC240" stroke-width="2" stroke-miterlimit="10" stroke-linecap="round"/>
<path d="M56.1715 45.7412L57.0804 43.8438" stroke="#EDC240" stroke-width="2" stroke-miterlimit="10" stroke-linecap="round"/>
<path d="M57.0804 43.8438L57.9894 44.7197" stroke="#EDC240" stroke-width="2" stroke-miterlimit="10" stroke-linecap="round"/>
<path d="M57.9894 44.7192L58.8983 42.4141" stroke="#EDC240" stroke-width="2" stroke-miterlimit="10" stroke-linecap="round"/>
<path d="M58.8983 42.4141L59.8072 42.416" stroke="#EDC240" stroke-width="2" stroke-miterlimit="10" stroke-linecap="round"/>
<path d="M59.8073 42.416L60.7162 43.0075" stroke="#EDC240" stroke-width="2" stroke-miterlimit="10" stroke-linecap="round"/>
<path d="M60.7161 43.0078L61.625 41.7344" stroke="#EDC240" stroke-width="2" stroke-miterlimit="10" stroke-linecap="round"/>
<path d="M61.625 41.7344L62.5339 42.3944" stroke="#EDC240" stroke-width="2" stroke-miterlimit="10" stroke-linecap="round"/>
<path d="M62.5339 42.3945L63.4428 43.5384" stroke="#EDC240" stroke-width="2" stroke-miterlimit="10" stroke-linecap="round"/>
<path d="M63.4429 43.5391L64.3518 44.0474" stroke="#EDC240" stroke-width="2" stroke-miterlimit="10" stroke-linecap="round"/>
<path d="M64.3518 44.0469L65.2607 44.2399" stroke="#EDC240" stroke-width="2" stroke-miterlimit="10" stroke-linecap="round"/>
<path d="M65.2607 44.2402L66.1697 45.0094" stroke="#EDC240" stroke-width="2" stroke-miterlimit="10" stroke-linecap="round"/>
<path d="M66.1696 45.0096L67.0785 43.7246" stroke="#EDC240" stroke-width="2" stroke-miterlimit="10" stroke-linecap="round"/>
<path d="M67.0785 43.7246L67.9874 44.6118" stroke="#EDC240" stroke-width="2" stroke-miterlimit="10" stroke-linecap="round"/>
<path d="M67.9874 44.6123L68.8963 44.2285" stroke="#EDC240" stroke-width="2" stroke-miterlimit="10" stroke-linecap="round"/>
<path d="M68.8964 44.2285L69.8053 44.1602" stroke="#EDC240" stroke-width="2" stroke-miterlimit="10" stroke-linecap="round"/>
<path d="M69.8053 44.16L70.7142 42.8301" stroke="#EDC240" stroke-width="2" stroke-miterlimit="10" stroke-linecap="round"/>
<path d="M70.7142 42.8301L71.6231 43.1036" stroke="#EDC240" stroke-width="2" stroke-miterlimit="10" stroke-linecap="round"/>
<path d="M71.623 43.1035L72.532 43.9178" stroke="#EDC240" stroke-width="2" stroke-miterlimit="10" stroke-linecap="round"/>
<path d="M72.532 43.918L73.4409 45.3068" stroke="#EDC240" stroke-width="2" stroke-miterlimit="10" stroke-linecap="round"/>
<path d="M73.4409 45.3059L74.3498 43.4707" stroke="#EDC240" stroke-width="2" stroke-miterlimit="10" stroke-linecap="round"/>
<path d="M74.3499 43.4707L75.2588 43.5784" stroke="#EDC240" stroke-width="2" stroke-miterlimit="10" stroke-linecap="round"/>
<path d="M75.2588 43.5795L76.1677 42.5156" stroke="#EDC240" stroke-width="2" stroke-miterlimit="10" stroke-linecap="round"/>
<path d="M76.1677 42.5156L77.0766 42.5753" stroke="#EDC240" stroke-width="2" stroke-miterlimit="10" stroke-linecap="round"/>
<path d="M77.0767 42.5753L77.9856 42.4277" stroke="#EDC240" stroke-width="2" stroke-miterlimit="10" stroke-linecap="round"/>
<path d="M77.9855 42.4269L78.8944 42.0957" stroke="#EDC240" stroke-width="2" stroke-miterlimit="10" stroke-linecap="round"/>
<path d="M78.8944 42.0957L79.8033 42.3876" stroke="#EDC240" stroke-width="2" stroke-miterlimit="10" stroke-linecap="round"/>
<path d="M79.8033 42.3868L80.7123 40.7344" stroke="#EDC240" stroke-width="2" stroke-miterlimit="10" stroke-linecap="round"/>
<path d="M80.7123 40.7351L81.6212 40.6719" stroke="#EDC240" stroke-width="2" stroke-miterlimit="10" stroke-linecap="round"/>
<path d="M81.6212 40.672L82.5301 38.7598" stroke="#EDC240" stroke-width="2" stroke-miterlimit="10" stroke-linecap="round"/>
<path d="M82.53 38.7598L83.4389 40.6984" stroke="#EDC240" stroke-width="2" stroke-miterlimit="10" stroke-linecap="round"/>
<path d="M83.439 40.6992L84.3479 40.6445" stroke="#EDC240" stroke-width="2" stroke-miterlimit="10" stroke-linecap="round"/>
<path d="M84.3479 40.6445L85.2568 41.3206" stroke="#EDC240" stroke-width="2" stroke-miterlimit="10" stroke-linecap="round"/>
<path d="M85.2568 41.3203L86.1658 41.8029" stroke="#EDC240" stroke-width="2" stroke-miterlimit="10" stroke-linecap="round"/>
<path d="M86.1658 41.8018L87.0747 41.2539" stroke="#EDC240" stroke-width="2" stroke-miterlimit="10" stroke-linecap="round"/>
<path d="M87.0747 41.2553L87.9836 40.0957" stroke="#EDC240" stroke-width="2" stroke-miterlimit="10" stroke-linecap="round"/>
<path d="M87.9836 40.0942L88.8926 39.7168" stroke="#EDC240" stroke-width="2" stroke-miterlimit="10" stroke-linecap="round"/>
<path d="M88.8925 39.7168L89.8014 40.6187" stroke="#EDC240" stroke-width="2" stroke-miterlimit="10" stroke-linecap="round"/>
<path d="M89.8014 40.6191L90.7103 43.1467" stroke="#EDC240" stroke-width="2" stroke-miterlimit="10" stroke-linecap="round"/>
<path d="M90.7103 43.1468L91.6192 42.4883" stroke="#EDC240" stroke-width="2" stroke-miterlimit="10" stroke-linecap="round"/>
<path d="M91.6193 42.4883L92.5282 43.7827" stroke="#EDC240" stroke-width="2" stroke-miterlimit="10" stroke-linecap="round"/>
<path d="M92.5282 43.7832L93.4371 44.6678" stroke="#EDC240" stroke-width="2" stroke-miterlimit="10" stroke-linecap="round"/>
<path d="M93.4371 44.6683L94.346 40.2559" stroke="#EDC240" stroke-width="2" stroke-miterlimit="10" stroke-linecap="round"/>
<path d="M94.3459 40.2558L95.2549 33.3301" stroke="#EDC240" stroke-width="2" stroke-miterlimit="10" stroke-linecap="round"/>
<path d="M95.2549 33.3286L96.1638 30.0469" stroke="#EDC240" stroke-width="2" stroke-miterlimit="10" stroke-linecap="round"/>
<path d="M96.1638 30.0481L97.0727 28.1387" stroke="#EDC240" stroke-width="2" stroke-miterlimit="10" stroke-linecap="round"/>
<path d="M97.0728 28.1387L97.9817 30.8295" stroke="#EDC240" stroke-width="2" stroke-miterlimit="10" stroke-linecap="round"/>
<path d="M97.9817 30.8281L98.8906 30.7031" stroke="#EDC240" stroke-width="2" stroke-miterlimit="10" stroke-linecap="round"/>
<path d="M98.8906 30.7033L99.7995 29.9434" stroke="#EDC240" stroke-width="2" stroke-miterlimit="10" stroke-linecap="round"/>
<path d="M99.7994 29.9434L100.708 30.4941" stroke="#EDC240" stroke-width="2" stroke-miterlimit="10" stroke-linecap="round"/>
<path d="M100.708 30.4956L101.617 30.1055" stroke="#EDC240" stroke-width="2" stroke-miterlimit="10" stroke-linecap="round"/>
<path d="M101.617 30.1043L102.526 28.5684" stroke="#EDC240" stroke-width="2" stroke-miterlimit="10" stroke-linecap="round"/>
<path d="M102.526 28.5683L103.435 27.2383" stroke="#EDC240" stroke-width="2" stroke-miterlimit="10" stroke-linecap="round"/>
<path d="M103.435 27.2383L104.344 29.9764" stroke="#EDC240" stroke-width="2" stroke-miterlimit="10" stroke-linecap="round"/>
<path d="M104.344 29.9766L105.253 30.1814" stroke="#EDC240" stroke-width="2" stroke-miterlimit="10" stroke-linecap="round"/>
<path d="M105.253 30.1815L106.162 27.8672" stroke="#EDC240" stroke-width="2" stroke-miterlimit="10" stroke-linecap="round"/>
<path d="M106.162 27.8666L107.071 27.7422" stroke="#EDC240" stroke-width="2" stroke-miterlimit="10" stroke-linecap="round"/>
<path d="M107.071 27.7422L107.98 29.3793" stroke="#EDC240" stroke-width="2" stroke-miterlimit="10" stroke-linecap="round"/>
<path d="M107.98 29.3809L108.889 29.9475" stroke="#EDC240" stroke-width="2" stroke-miterlimit="10" stroke-linecap="round"/>
<path d="M108.889 29.9467L109.798 29.1875" stroke="#EDC240" stroke-width="2" stroke-miterlimit="10" stroke-linecap="round"/>
<path d="M109.798 29.1875L110.707 30.1051" stroke="#EDC240" stroke-width="2" stroke-miterlimit="10" stroke-linecap="round"/>
<path d="M110.706 30.1055L111.615 31.3838" stroke="#EDC240" stroke-width="2" stroke-miterlimit="10" stroke-linecap="round"/>
<path d="M111.615 31.3828L112.524 32.0068" stroke="#EDC240" stroke-width="2" stroke-miterlimit="10" stroke-linecap="round"/>
<path d="M112.524 32.0078L113.433 32.6466" stroke="#EDC240" stroke-width="2" stroke-miterlimit="10" stroke-linecap="round"/>
<path d="M113.433 32.6462L114.342 32.1973" stroke="#EDC240" stroke-width="2" stroke-miterlimit="10" stroke-linecap="round"/>
<path d="M114.342 32.1967L115.251 30.9648" stroke="#EDC240" stroke-width="2" stroke-miterlimit="10" stroke-linecap="round"/>
<path d="M115.251 30.9648L116.16 36.1082" stroke="#EDC240" stroke-width="2" stroke-miterlimit="10" stroke-linecap="round"/>
<path d="M116.16 36.1078L117.069 35.9668" stroke="#EDC240" stroke-width="2" stroke-miterlimit="10" stroke-linecap="round"/>
<path d="M117.069 35.9668L117.978 37.227" stroke="#EDC240" stroke-width="2" stroke-miterlimit="10" stroke-linecap="round"/>
<path d="M117.978 37.2285L118.887 37.6847" stroke="#EDC240" stroke-width="2" stroke-miterlimit="10" stroke-linecap="round"/>
<path d="M118.887 37.6836L119.796 38.4032" stroke="#EDC240" stroke-width="2" stroke-miterlimit="10" stroke-linecap="round"/>
<path d="M119.796 38.4035L120.705 37.8281" stroke="#EDC240" stroke-width="2" stroke-miterlimit="10" stroke-linecap="round"/>
<path d="M120.705 37.8281L121.614 39.159" stroke="#EDC240" stroke-width="2" stroke-miterlimit="10" stroke-linecap="round"/>
<path d="M121.614 39.1596L122.522 37.9102" stroke="#EDC240" stroke-width="2" stroke-miterlimit="10" stroke-linecap="round"/>
<path d="M122.522 37.9096L123.431 37.5762" stroke="#EDC240" stroke-width="2" stroke-miterlimit="10" stroke-linecap="round"/>
<path d="M123.431 37.5762L124.34 37.6852" stroke="#EDC240" stroke-width="2" stroke-miterlimit="10" stroke-linecap="round"/>
<path d="M124.34 37.6855L125.249 40.7005" stroke="#EDC240" stroke-width="2" stroke-miterlimit="10" stroke-linecap="round"/>
<path d="M125.249 40.6992L126.158 41.5203" stroke="#EDC240" stroke-width="2" stroke-miterlimit="10" stroke-linecap="round"/>
<path d="M126.158 41.5221L127.067 40.6484" stroke="#EDC240" stroke-width="2" stroke-miterlimit="10" stroke-linecap="round"/>
<path d="M127.067 40.6475L127.976 39.3125" stroke="#EDC240" stroke-width="2" stroke-miterlimit="10" stroke-linecap="round"/>
<path d="M127.976 39.3132L128.885 39.043" stroke="#EDC240" stroke-width="2" stroke-miterlimit="10" stroke-linecap="round"/>
<path d="M128.885 39.0424L129.794 38.4473" stroke="#EDC240" stroke-width="2" stroke-miterlimit="10" stroke-linecap="round"/>
<path d="M129.794 38.4472L130.703 38.2012" stroke="#EDC240" stroke-width="2" stroke-miterlimit="10" stroke-linecap="round"/>
<path d="M130.703 38.2012L131.612 39.3112" stroke="#EDC240" stroke-width="2" stroke-miterlimit="10" stroke-linecap="round"/>
<path d="M131.612 39.3105L132.52 40.3461" stroke="#EDC240" stroke-width="2" stroke-miterlimit="10" stroke-linecap="round"/>
<path d="M132.521 40.3464L133.429 38.4512" stroke="#EDC240" stroke-width="2" stroke-miterlimit="10" stroke-linecap="round"/>
<path d="M133.429 38.4521L134.338 37.8242" stroke="#EDC240" stroke-width="2" stroke-miterlimit="10" stroke-linecap="round"/>
<path d="M134.338 37.8238L135.247 36.5684" stroke="#EDC240" stroke-width="2" stroke-miterlimit="10" stroke-linecap="round"/>
<path d="M135.247 36.5684L136.156 36.614" stroke="#EDC240" stroke-width="2" stroke-miterlimit="10" stroke-linecap="round"/>
<path d="M136.156 36.6133L137.065 36.6751" stroke="#EDC240" stroke-width="2" stroke-miterlimit="10" stroke-linecap="round"/>
<path d="M137.065 36.6763L137.974 36.3086" stroke="#EDC240" stroke-width="2" stroke-miterlimit="10" stroke-linecap="round"/>
<path d="M137.974 36.3077L138.883 34.6211" stroke="#EDC240" stroke-width="2" stroke-miterlimit="10" stroke-linecap="round"/>
<path d="M138.883 34.6211L139.792 34.9752" stroke="#EDC240" stroke-width="2" stroke-miterlimit="10" stroke-linecap="round"/>
<path d="M139.792 34.9762L140.701 30.3105" stroke="#EDC240" stroke-width="2" stroke-miterlimit="10" stroke-linecap="round"/>
<path d="M140.701 30.3105L141.61 30.9096" stroke="#EDC240" stroke-width="2" stroke-miterlimit="10" stroke-linecap="round"/>
<path d="M141.61 30.9082L142.519 32.7408" stroke="#EDC240" stroke-width="2" stroke-miterlimit="10" stroke-linecap="round"/>
<path d="M142.519 32.7405L143.427 23.3535" stroke="#EDC240" stroke-width="2" stroke-miterlimit="10" stroke-linecap="round"/>
<path d="M143.427 23.3539L144.336 19.793" stroke="#EDC240" stroke-width="2" stroke-miterlimit="10" stroke-linecap="round"/>
<path d="M144.336 19.7935L145.245 17.6074" stroke="#EDC240" stroke-width="2" stroke-miterlimit="10" stroke-linecap="round"/>
<path d="M145.245 17.6067L146.154 15.748" stroke="#EDC240" stroke-width="2" stroke-miterlimit="10" stroke-linecap="round"/>
<path d="M146.154 15.748L147.063 14.9141" stroke="#EDC240" stroke-width="2" stroke-miterlimit="10" stroke-linecap="round"/>
<path d="M147.063 14.9151L147.972 12.5723" stroke="#EDC240" stroke-width="2" stroke-miterlimit="10" stroke-linecap="round"/>
<path d="M147.972 12.5717L148.881 7.49414" stroke="#EDC240" stroke-width="2" stroke-miterlimit="10" stroke-linecap="round"/>
<path d="M148.881 7.49378L149.79 5.91992" stroke="#EDC240" stroke-width="2" stroke-miterlimit="10" stroke-linecap="round"/>
<path d="M149.79 5.91992L150.699 6.17834" stroke="#EDC240" stroke-width="2" stroke-miterlimit="10" stroke-linecap="round"/>
<path d="M150.699 6.17969L151.608 6.54439" stroke="#EDC240" stroke-width="2" stroke-miterlimit="10" stroke-linecap="round"/>
<path d="M151.608 6.54445L152.517 4.80469" stroke="#EDC240" stroke-width="2" stroke-miterlimit="10" stroke-linecap="round"/>
</g>
</g>
</g>
</g>
<defs>
<clipPath id="clip0_139_22585">
<rect width="164" height="53" fill="white" transform="translate(0.530029)"/>
</clipPath>
<clipPath id="clip1_139_22585">
<rect width="164" height="53" fill="white" transform="translate(0.530029)"/>
</clipPath>
<clipPath id="clip2_139_22585">
<rect width="164" height="48" fill="white" transform="translate(0.530029 2)"/>
</clipPath>
</defs>
</svg>
