<svg width="17" height="16" viewBox="0 0 17 16" fill="none" xmlns="http://www.w3.org/2000/svg">
<path d="M14.27 4.66732H4.93669C4.57002 4.66732 4.27002 4.36732 4.27002 4.00065C4.27002 3.63398 4.57002 3.33398 4.93669 3.33398H14.27C14.6367 3.33398 14.9367 3.63398 14.9367 4.00065C14.9367 4.36732 14.6367 4.66732 14.27 4.66732Z" fill="#858CA2"/>
<path d="M14.27 8.66732H4.93669C4.57002 8.66732 4.27002 8.36732 4.27002 8.00065C4.27002 7.63398 4.57002 7.33398 4.93669 7.33398H14.27C14.6367 7.33398 14.9367 7.63398 14.9367 8.00065C14.9367 8.36732 14.6367 8.66732 14.27 8.66732Z" fill="#858CA2"/>
<path d="M14.27 12.6673H4.93669C4.57002 12.6673 4.27002 12.3673 4.27002 12.0007C4.27002 11.634 4.57002 11.334 4.93669 11.334H14.27C14.6367 11.334 14.9367 11.634 14.9367 12.0007C14.9367 12.3673 14.6367 12.6673 14.27 12.6673Z" fill="#858CA2"/>
<path d="M2.26996 4.76576C2.69338 4.76576 3.03663 4.4225 3.03663 3.99909C3.03663 3.57567 2.69338 3.23242 2.26996 3.23242C1.84654 3.23242 1.5033 3.57567 1.5033 3.99909C1.5033 4.4225 1.84654 4.76576 2.26996 4.76576Z" fill="#858CA2"/>
<path d="M2.26996 8.76575C2.69338 8.76575 3.03663 8.42249 3.03663 7.99909C3.03663 7.57562 2.69338 7.23242 2.26996 7.23242C1.84654 7.23242 1.5033 7.57562 1.5033 7.99909C1.5033 8.42249 1.84654 8.76575 2.26996 8.76575Z" fill="#858CA2"/>
<path d="M2.26996 12.7658C2.69338 12.7658 3.03663 12.4225 3.03663 11.9991C3.03663 11.5756 2.69338 11.2324 2.26996 11.2324C1.84654 11.2324 1.5033 11.5756 1.5033 11.9991C1.5033 12.4225 1.84654 12.7658 2.26996 12.7658Z" fill="#858CA2"/>
</svg>
