<svg width="30" height="26" viewBox="0 0 30 26" fill="none" xmlns="http://www.w3.org/2000/svg">
<rect width="30" height="26" rx="6" fill="#222531"/>
<path d="M7 8.20312C7.01042 7.97396 7.08854 7.78385 7.23438 7.63281C7.38021 7.48177 7.56771 7.40625 7.79688 7.40625H22.2031C22.4323 7.40625 22.6198 7.48177 22.7656 7.63281C22.9115 7.78385 22.9844 7.97396 22.9844 8.20312C22.9844 8.43229 22.9115 8.61979 22.7656 8.76562C22.6198 8.91146 22.4323 8.98958 22.2031 9H7.79688C7.56771 8.98958 7.38021 8.91146 7.23438 8.76562C7.08854 8.61979 7.01042 8.43229 7 8.20312ZM7 13C7.01042 12.7708 7.08854 12.5807 7.23438 12.4297C7.38021 12.2786 7.56771 12.2031 7.79688 12.2031H22.2031C22.4323 12.2031 22.6198 12.2786 22.7656 12.4297C22.9115 12.5807 22.9844 12.7708 22.9844 13C22.9844 13.2292 22.9115 13.4167 22.7656 13.5625C22.6198 13.7083 22.4323 13.7865 22.2031 13.7969H7.79688C7.56771 13.7865 7.38021 13.7083 7.23438 13.5625C7.08854 13.4167 7.01042 13.2292 7 13ZM7.79688 17C7.56771 17 7.38021 17.0755 7.23438 17.2266C7.08854 17.3776 7.01562 17.5677 7.01562 17.7969C7.01562 18.026 7.08854 18.2135 7.23438 18.3594C7.38021 18.5052 7.56771 18.5833 7.79688 18.5938H22.2031C22.4323 18.5833 22.6198 18.5052 22.7656 18.3594C22.9115 18.2135 22.9844 18.026 22.9844 17.7969C22.9844 17.5677 22.9115 17.3776 22.7656 17.2266C22.6198 17.0755 22.4323 17 22.2031 17H7.79688Z" fill="white"/>
</svg>
