<svg width="20" height="20" viewBox="0 0 20 20" fill="none" xmlns="http://www.w3.org/2000/svg">
<path fill-rule="evenodd" clip-rule="evenodd" d="M4.16665 3.33398C3.70641 3.33398 3.33331 3.70708 3.33331 4.16732V8.33398C3.33331 8.79423 3.70641 9.16732 4.16665 9.16732H8.33331C8.79356 9.16732 9.16665 8.79423 9.16665 8.33398V4.16732C9.16665 3.70708 8.79356 3.33398 8.33331 3.33398H4.16665ZM11.6666 3.33398C11.2064 3.33398 10.8333 3.70708 10.8333 4.16732V8.33398C10.8333 8.79423 11.2064 9.16732 11.6666 9.16732H15.8333C16.2936 9.16732 16.6666 8.79423 16.6666 8.33398V4.16732C16.6666 3.70708 16.2936 3.33398 15.8333 3.33398H11.6666ZM10.8333 11.6673C10.8333 11.2071 11.2064 10.834 11.6666 10.834H15.8333C16.2936 10.834 16.6666 11.2071 16.6666 11.6673V15.834C16.6666 16.2942 16.2936 16.6673 15.8333 16.6673H11.6666C11.2064 16.6673 10.8333 16.2942 10.8333 15.834V11.6673ZM4.16665 10.834C3.70641 10.834 3.33331 11.2071 3.33331 11.6673V15.834C3.33331 16.2942 3.70641 16.6673 4.16665 16.6673H8.33331C8.79356 16.6673 9.16665 16.2942 9.16665 15.834V11.6673C9.16665 11.2071 8.79356 10.834 8.33331 10.834H4.16665Z" fill="white"/>
</svg>
