<svg width="12" height="12" viewBox="0 0 12 12" fill="none" xmlns="http://www.w3.org/2000/svg">
<path d="M5.6 0.499804C5.71667 0.499804 5.81875 0.528972 5.90625 0.587305C5.99375 0.645638 6.06302 0.7222 6.11406 0.816993L7.54688 3.86855L10.7297 4.36074C10.8318 4.37533 10.9229 4.41543 11.0031 4.48105C11.0833 4.54668 11.1398 4.63053 11.1727 4.73262C11.2055 4.8347 11.2109 4.93496 11.1891 5.0334C11.1672 5.13184 11.1198 5.22116 11.0469 5.30137L8.72813 7.68574L9.275 11.0545C9.28958 11.1566 9.27682 11.2568 9.23672 11.3553C9.19662 11.4537 9.13099 11.5339 9.03984 11.5959C8.9487 11.6579 8.85208 11.6925 8.75 11.6998C8.64792 11.7071 8.54583 11.6852 8.44375 11.6342L5.6 10.0592L2.75625 11.6342C2.66146 11.6852 2.56302 11.7071 2.46094 11.6998C2.35886 11.6925 2.26224 11.6579 2.17109 11.5959C2.07995 11.5339 2.01432 11.4537 1.97422 11.3553C1.93412 11.2568 1.92136 11.1566 1.93594 11.0545L2.48281 7.68574L0.164063 5.30137C0.0911467 5.22116 0.0437509 5.13184 0.0218759 5.0334C9.16421e-07 4.93496 0.00546967 4.8347 0.0382822 4.73262C0.0710947 4.63053 0.127605 4.54668 0.207813 4.48105C0.288022 4.41543 0.379168 4.37533 0.481251 4.36074L3.66406 3.86855L5.09688 0.816993C5.14792 0.7222 5.21719 0.645638 5.30469 0.587305C5.39219 0.528972 5.49063 0.499804 5.6 0.499804ZM5.6 2.38105C5.55625 2.47585 5.38125 2.84772 5.075 3.49668L4.55 4.6123C4.51354 4.6998 4.45886 4.7709 4.38594 4.82559C4.31302 4.88027 4.22917 4.91491 4.13438 4.92949L1.72813 5.30137L3.48906 7.10605C3.61302 7.2373 3.66406 7.39772 3.64219 7.5873L3.22656 10.092L5.3375 8.93262C5.41771 8.88158 5.50703 8.85605 5.60547 8.85605C5.70391 8.85605 5.79323 8.88158 5.87344 8.93262L7.98438 10.092L7.56875 7.5873C7.54688 7.39772 7.59792 7.2373 7.72188 7.10605L9.48281 5.30137L7.07656 4.92949C6.98177 4.91491 6.89792 4.88027 6.825 4.82559C6.75208 4.7709 6.6974 4.6998 6.66094 4.6123L5.6 2.38105Z" fill="#A6B1C2"/>
</svg>
