<svg width="17" height="17" viewBox="0 0 17 17" fill="none" xmlns="http://www.w3.org/2000/svg">
<path d="M8.18998 1.83398C4.51387 1.83398 1.52332 4.82454 1.52332 8.50065C1.52332 12.1768 4.51387 15.1673 8.18998 15.1673C11.8661 15.1673 14.8566 12.1768 14.8566 8.50065C14.8566 4.82454 11.8661 1.83398 8.18998 1.83398ZM9.66665 11.9918C9.29945 12.1362 8.02665 12.744 7.29332 12.0979C7.07445 11.9057 6.96552 11.6618 6.96552 11.3657C6.96552 10.8112 7.14778 10.3279 7.47612 9.16732C7.53385 8.94785 7.60445 8.66345 7.60445 8.43785C7.60445 8.04845 7.45665 7.94512 7.05612 7.94512C6.86052 7.94512 6.64387 8.01452 6.44776 8.08785L6.5561 7.64398C6.99332 7.46618 7.54218 7.24952 8.01218 7.24952C8.71718 7.24952 9.23612 7.60118 9.23612 8.27012C9.23612 8.46285 9.20278 8.80065 9.13278 9.03398L8.72718 10.4685C8.64332 10.7585 8.49165 11.3979 8.72665 11.5873C8.95778 11.7745 9.50498 11.6751 9.77498 11.5479L9.66665 11.9918ZM8.99665 6.27843C8.53665 6.27843 8.16332 5.9051 8.16332 5.4451C8.16332 4.9851 8.53665 4.61176 8.99665 4.61176C9.45665 4.61176 9.82998 4.9851 9.82998 5.4451C9.82998 5.9051 9.45665 6.27843 8.99665 6.27843Z" fill="#646B80"/>
</svg>
